<svg xmlns="http://www.w3.org/2000/svg" viewBox="0 0 32 32" width="32" height="32">
  <defs>
    <linearGradient id="grad1" x1="0%" y1="0%" x2="100%" y2="100%">
      <stop offset="0%" style="stop-color:#667eea;stop-opacity:1" />
      <stop offset="100%" style="stop-color:#764ba2;stop-opacity:1" />
    </linearGradient>
  </defs>
  
  <!-- Background circle -->
  <circle cx="16" cy="16" r="15" fill="url(#grad1)" stroke="#fff" stroke-width="1"/>
  
  <!-- Music note -->
  <path d="M12 8 L12 20 C12 22 10 24 8 24 C6 24 4 22 4 20 C4 18 6 16 8 16 C8.5 16 9 16.2 9.5 16.5 L9.5 8 L12 8 Z" fill="#fff"/>
  <circle cx="8" cy="20" r="2" fill="#fff"/>
  
  <!-- Mood indicator (smile) -->
  <path d="M20 14 Q22 16 20 18 Q18 16 20 14" fill="none" stroke="#fff" stroke-width="1.5" stroke-linecap="round"/>
  <circle cx="18" cy="12" r="1" fill="#fff"/>
  <circle cx="22" cy="12" r="1" fill="#fff"/>
</svg> 