<svg xmlns="http://www.w3.org/2000/svg" viewBox="0 0 512 512" width="512" height="512">
  <defs>
    <linearGradient id="grad1" x1="0%" y1="0%" x2="100%" y2="100%">
      <stop offset="0%" style="stop-color:#667eea;stop-opacity:1" />
      <stop offset="100%" style="stop-color:#764ba2;stop-opacity:1" />
    </linearGradient>
  </defs>
  
  <!-- Background circle -->
  <circle cx="256" cy="256" r="240" fill="url(#grad1)" stroke="#fff" stroke-width="8"/>
  
  <!-- Music note -->
  <path d="M192 128 L192 320 C192 352 160 384 128 384 C96 384 64 352 64 320 C64 288 96 256 128 256 C136 256 144 256.8 152 258 L152 128 L192 128 Z" fill="#fff"/>
  <circle cx="128" cy="320" r="32" fill="#fff"/>
  
  <!-- Mood indicator (smile) -->
  <path d="M320 224 Q352 256 320 288 Q288 256 320 224" fill="none" stroke="#fff" stroke-width="24" stroke-linecap="round"/>
  <circle cx="288" cy="192" r="16" fill="#fff"/>
  <circle cx="352" cy="192" r="16" fill="#fff"/>
</svg> 